<svg width="32" height="32" viewBox="0 0 32 32" fill="none" xmlns="http://www.w3.org/2000/svg">
<path d="M27.869 17.6641C27.517 17.6641 27.1491 17.5517 26.7971 17.4714C26.0841 17.3115 25.3831 17.1023 24.7001 16.8451C23.9571 16.5741 23.1401 16.5882 22.4071 16.8846C21.6741 17.1811 21.0771 17.739 20.7291 18.4509L20.3771 19.1896C18.8221 18.3051 17.386 17.2259 16.102 15.978C14.858 14.6907 13.782 13.25 12.9 11.6904L13.637 11.3532C14.347 11.0046 14.9031 10.405 15.1981 9.6698C15.4941 8.9346 15.5081 8.1157 15.2381 7.3707C14.9831 6.6787 14.7751 5.9706 14.6131 5.2511C14.5331 4.8978 14.469 4.5284 14.421 4.1751C14.227 3.044 13.6361 2.0197 12.7561 1.2867C11.8751 0.553601 10.7621 0.160001 9.61806 0.176601H4.79906C4.12206 0.175801 3.45304 0.3184 2.83504 0.5951C2.21704 0.8718 1.66407 1.2765 1.21307 1.7825C0.753066 2.3022 0.410061 2.9158 0.208061 3.581C0.00606079 4.2463 -0.0499407 4.9475 0.0440593 5.6365C0.915059 12.3201 3.95905 18.5291 8.70605 23.3005C13.463 28.0615 19.653 31.1151 26.317 31.9881C26.524 32.004 26.7331 32.004 26.9411 31.9881C28.1211 31.9898 29.2611 31.5553 30.1431 30.7676C30.6471 30.3151 31.051 29.7606 31.327 29.1407C31.603 28.5208 31.745 27.8494 31.744 27.1706V22.3531C31.735 21.2435 31.3451 20.171 30.6391 19.3166C29.9331 18.4623 28.955 17.8786 27.869 17.6641ZM28.654 27.299C28.653 27.5231 28.6061 27.7446 28.5151 27.9493C28.4241 28.1539 28.2911 28.3372 28.1261 28.4874C27.9501 28.6477 27.7411 28.7669 27.5141 28.8363C27.2871 28.9058 27.048 28.9237 26.813 28.8888C20.838 28.1062 15.286 25.3753 11.011 21.1166C6.73204 16.825 3.98605 11.2366 3.19805 5.2189C3.16405 4.9834 3.18106 4.7431 3.25106 4.5153C3.32006 4.2876 3.43905 4.0782 3.59905 3.9022C3.75005 3.7338 3.93505 3.5995 4.14205 3.5082C4.34905 3.4168 4.57306 3.3705 4.79906 3.3722H9.60204C9.97204 3.3632 10.3341 3.483 10.6261 3.7114C10.9181 3.9398 11.1221 4.2625 11.2031 4.6248C11.2031 5.0584 11.347 5.508 11.443 5.9416C11.628 6.7828 11.875 7.6093 12.18 8.4145L9.93804 9.4744C9.55304 9.6518 9.25404 9.9752 9.10604 10.3736C8.94604 10.7646 8.94604 11.2031 9.10604 11.5941C11.41 16.5444 15.377 20.5237 20.313 22.8348C20.703 22.9955 21.1401 22.9955 21.5301 22.8348C21.9271 22.6865 22.249 22.3862 22.426 21.9998L23.4351 19.7517C24.2611 20.0538 25.106 20.3005 25.964 20.4903C26.381 20.5867 26.829 20.667 27.261 20.7312C27.622 20.8128 27.9441 21.0174 28.1721 21.3102C28.3991 21.603 28.5191 21.9658 28.5101 22.337L28.654 27.299ZM19.2081 0C18.8401 0 18.4561 0 18.0871 0C17.6631 0.0362 17.27 0.240098 16.995 0.566898C16.721 0.893598 16.586 1.3164 16.623 1.7423C16.659 2.1682 16.862 2.5623 17.188 2.8378C17.513 3.1134 17.935 3.2479 18.36 3.2117H19.2081C21.7561 3.2117 24.1991 4.2268 26.0011 6.0337C27.8021 7.8406 28.814 10.2913 28.814 12.8466C28.814 13.1357 28.814 13.4086 28.814 13.6977C28.779 14.1213 28.9121 14.5418 29.1851 14.8669C29.4581 15.192 29.849 15.3952 30.271 15.432H30.399C30.8 15.4336 31.1871 15.2844 31.4831 15.0139C31.7791 14.7433 31.9641 14.3711 32.0001 13.9707C32.0001 13.6013 32.0001 13.2159 32.0001 12.8466C32.0001 9.4423 30.6531 6.1771 28.2541 3.7684C25.8561 1.3596 22.6021 0.0043 19.2081 0ZM22.4101 12.8466C22.4101 13.2725 22.5791 13.6809 22.8791 13.9821C23.1791 14.2833 23.586 14.4524 24.011 14.4524C24.436 14.4524 24.8431 14.2833 25.1431 13.9821C25.4431 13.6809 25.6121 13.2725 25.6121 12.8466C25.6121 11.143 24.937 9.5092 23.736 8.3046C22.535 7.1 20.9071 6.4233 19.2081 6.4233C18.7841 6.4233 18.376 6.5925 18.076 6.8936C17.776 7.1948 17.607 7.6032 17.607 8.0291C17.607 8.455 17.776 8.8635 18.076 9.1646C18.376 9.4658 18.7841 9.635 19.2081 9.635C20.0571 9.635 20.872 9.9733 21.472 10.5756C22.073 11.1779 22.4101 11.9948 22.4101 12.8466Z" fill="white"/>
</svg>
